<svg id="Layer_1" data-name="Layer 1" xmlns="http://www.w3.org/2000/svg" viewBox="0 0 184.25 52.51"><defs><style>.cls-1,.cls-2{fill:#fff;}.cls-2{fill-rule:evenodd;}</style></defs><path class="cls-1" d="M176.73,13.89h.44v-.42h-.73v1.25h.29Zm-1.34,0h.44v-.42h-.73v1.25h.29ZM151.72,2.29v33.6h17.61V25.78h3V35.89h.41V24.83h5.47V35.89h.37V25.78h3V35.89h4V2.29ZM175.46,8l3,1.81h-6Zm-3,2.16h6l.31,2.21h-6.65Zm8.49,15.3h-2.35v-1h-6.25v1H170V23.32h.42v-7h.66V12.72h8.8v3.62h.67v7h.4Zm-4-2.12h.49V18.69h1.11v-.83h-1.63Zm-5.08-6.23h7.23l.35-.46h-7.89Zm2.79,6.23h.5V18.69h1.1v-.83h-1.61Zm-.6-9.43h.44v-.42h-.73v1.25h.29Zm-1.67,9.43h.5V18.69H174v-.83h-1.61Zm3.11,3A1.53,1.53,0,1,0,177,27.81,1.52,1.52,0,0,0,175.49,26.28Zm0,2.72a1.2,1.2,0,1,1,1.19-1.19A1.2,1.2,0,0,1,175.49,29Z" transform="translate(-1.94 -2.29)"/><path class="cls-1" d="M12.59,49.8V42.26H10V50a2.64,2.64,0,0,1-.63,1.9,2.72,2.72,0,0,1-2.15.78,2.71,2.71,0,0,1-2.07-.78,2.94,2.94,0,0,1-.7-2V42.26H1.94v7.8a4.75,4.75,0,0,0,1.21,3.47A5.63,5.63,0,0,0,7.21,54.8a5.55,5.55,0,0,0,4.13-1.42,4.93,4.93,0,0,0,1.25-3.58Z" transform="translate(-1.94 -2.29)"/><path class="cls-2" d="M27.4,54.62V42.26H24.84v6.3c0,.53,0,1.33,0,1.92h0c-.34-.51-.68-1-1.16-1.62l-5.18-6.6H15.9V54.62h2.56V47.85c0-.56,0-1.31,0-1.72h0c.36.54.71,1,1.18,1.62L25,54.62Z" transform="translate(-1.94 -2.29)"/><polygon class="cls-1" points="31.5 52.33 31.5 39.98 28.93 39.98 28.93 52.33 31.5 52.33 31.5 52.33"/><path class="cls-1" d="M47.2,42.26H44.57l-2.8,6.65c-.34.82-.62,1.54-.83,2.21h0c-.25-.69-.53-1.48-.85-2.28l-2.52-6.58H34.72L39.8,54.71h1.91L47.2,42.26Z" transform="translate(-1.94 -2.29)"/><polygon class="cls-1" points="53.88 52.33 53.88 50.23 49.29 50.23 49.29 47.07 53.23 47.07 53.23 44.95 49.29 44.95 49.29 42.08 53.22 42.08 53.89 39.98 46.72 39.98 46.72 52.33 53.88 52.33 53.88 52.33"/><path class="cls-2" d="M68.16,54.62C66.3,51.47,65.1,49.38,64.47,49v0a3.52,3.52,0,0,0,2.25-3.19c0-1.91-1.19-3.55-4.49-3.55H58.62V54.62H61.2V49.84h.95c.45.17,1.2,1.57,3.08,4.78Zm-4-8.54A1.85,1.85,0,0,1,62.28,48H61.2V44.41h1.08a1.68,1.68,0,0,1,1.89,1.67Z" transform="translate(-1.94 -2.29)"/><path class="cls-1" d="M77.15,51.14c0-3.88-5.31-3.69-5.31-5.84,0-.71.71-1.12,1.63-1.12a6.14,6.14,0,0,1,3,.9l0-2.22a6.42,6.42,0,0,0-3.12-.75c-2.72,0-4.2,1.65-4.2,3.53a3.22,3.22,0,0,0,.78,2.2c1.51,1.71,4.51,2,4.51,3.63,0,.93-1,1.27-1.92,1.27a5.18,5.18,0,0,1-2.83-1l-1,1.86a7,7,0,0,0,3.94,1.16c2.54,0,4.53-1.4,4.53-3.66Z" transform="translate(-1.94 -2.29)"/><polygon class="cls-1" points="79.87 52.33 79.87 39.98 77.3 39.98 77.3 52.33 79.87 52.33 79.87 52.33"/><polygon class="cls-1" points="91.79 39.98 81.68 39.98 81.68 42.08 85.3 42.08 85.3 52.33 87.89 52.33 87.89 42.08 91.21 42.08 91.79 39.98 91.79 39.98"/><path class="cls-1" d="M105,42.26h-2.68l-1.89,3.49c-.29.52-.63,1.18-.89,1.74h0c-.26-.56-.62-1.25-.91-1.78l-1.88-3.45H93.88l4.29,7.46v4.9h2.57V49.76l4.27-7.5Z" transform="translate(-1.94 -2.29)"/><path class="cls-2" d="M122.81,48.42a6,6,0,0,0-6.39-6.31,6.29,6.29,0,0,0-4.6,1.84A6.54,6.54,0,0,0,110,48.57a6.18,6.18,0,0,0,2,4.73,6.45,6.45,0,0,0,4.41,1.5,6.11,6.11,0,0,0,6.39-6.38Zm-2.73.06c0,2.7-1.55,4.26-3.66,4.26s-3.7-1.56-3.7-4.26,1.56-4.26,3.7-4.26,3.66,1.59,3.66,4.26Z" transform="translate(-1.94 -2.29)"/><polygon class="cls-1" points="130.44 39.98 123.25 39.98 123.25 52.33 125.83 52.33 125.83 47.11 129.74 47.11 129.73 45.01 125.83 45.01 125.83 42.08 129.78 42.08 130.44 39.98 130.44 39.98"/><polygon class="cls-1" points="143.58 52.32 143.58 50.2 139.24 50.2 139.24 40 136.7 40 136.7 52.32 143.58 52.32 143.58 52.32"/><polygon class="cls-1" points="152.41 52.32 152.41 50.22 147.83 50.22 147.83 47.07 151.76 47.07 151.76 44.96 147.83 44.96 147.83 42.09 151.74 42.09 152.43 40 145.27 40 145.27 52.32 152.41 52.32 152.41 52.32"/><polygon class="cls-1" points="161.76 52.32 161.76 50.22 157.2 50.22 157.2 47.07 161.13 47.07 161.13 44.96 157.2 44.96 157.2 42.09 161.11 42.09 161.77 40 154.63 40 154.63 52.32 161.76 52.32 161.76 52.32"/><path class="cls-2" d="M176.9,48.34c0-3.68-2.48-6.05-6.87-6.05h-4.11V54.6h3.88c4.27,0,7.1-2.47,7.1-6.26Zm-2.76.07c0,2.16-1.19,4.08-4.24,4.08h-1.41V44.42h1.37c2.82,0,4.28,1.57,4.28,4Z" transform="translate(-1.94 -2.29)"/><path class="cls-1" d="M186.19,51.14c0-3.88-5.3-3.69-5.3-5.82,0-.71.71-1.12,1.63-1.12a6.15,6.15,0,0,1,2.94.89l0-2.21a6.35,6.35,0,0,0-3.11-.75c-2.71,0-4.2,1.65-4.2,3.52a3.19,3.19,0,0,0,.8,2.19c1.49,1.71,4.49,2,4.49,3.62,0,.94-1,1.27-1.91,1.27a5.1,5.1,0,0,1-2.83-1l-1,1.86a6.94,6.94,0,0,0,3.93,1.16c2.53,0,4.52-1.4,4.52-3.65Z" transform="translate(-1.94 -2.29)"/></svg>